<svg xmlns="http://www.w3.org/2000/svg"><style>:root{visibility:hidden}:target{visibility:visible}</style><svg fill="none" id="address" viewBox="0 0 13 16"><path fill-rule="evenodd" clip-rule="evenodd" d="M11.8 6.5c0 2.3-1.4 4.4-3 6a17.5 17.5 0 0 1-2.3 2 17 17 0 0 1-2.4-2c-1.5-1.6-2.9-3.7-2.9-6a5.3 5.3 0 1 1 10.6 0Zm1.2 0c0 5.6-6.5 9.5-6.5 9.5S0 12 0 6.5a6.5 6.5 0 0 1 13 0Zm-4.2 0a2.3 2.3 0 1 1-4.6 0 2.3 2.3 0 0 1 4.6 0Zm1.2 0a3.5 3.5 0 1 1-7 0 3.5 3.5 0 0 1 7 0Z" fill="#7859CF"></path></svg><svg fill="none" id="basket" viewBox="0 0 16 16"><path fill-rule="evenodd" clip-rule="evenodd" d="m5.7 3.9.2 2.8H10l.2-2.8a2.3 2.3 0 1 0-4.6 0Zm5.7 2.8.3-2.7a3.7 3.7 0 1 0-7.4 0l.3 2.7H0L.2 8l.8 5.7A2.7 2.7 0 0 0 3.6 16h8.8c1.3 0 2.4-1 2.6-2.3l.8-5.7.2-1.3h-4.6Zm0 1.3h-.1l-.2 2.7h3l.4-2.7h-3.2ZM9.8 8H6.1l.2 2.7h3.4L10 8ZM4.7 8H1.5l.4 2.7h3L4.7 8Zm2 6.7L6.3 12h3.2l-.2 2.7H6.6Zm4.2-2.7-.2 2.7h1.7c.6 0 1.2-.5 1.3-1.2l.2-1.5h-3Zm-5.8 0 .2 2.7H3.6c-.6 0-1.2-.5-1.3-1.2L2.1 12h3Z" fill="#333"></path></svg><svg fill="none" id="close" viewBox="0 0 60 60"><path fill="#fff" d="M0 0h60v60H0z"></path><path fill-rule="evenodd" clip-rule="evenodd" d="m29 30-5-5 1-1 5 5 5-5 1 1-5 5 5 5-1 1-5-5-5 5-1-1 5-5Z" fill="#333"></path></svg><svg fill="none" id="feature-comfort" viewBox="0 0 56 56"><path d="M6 4h48l-4 44-20 8-20-8L6 4Z" fill="#F0EBFF"></path><path fill-rule="evenodd" clip-rule="evenodd" d="M3 0H2v1l4 43 20 8 20-8 4-43V0H3Zm.1 1 .4 4H48.5l.4-4H3.1Zm40.8 5H8.1v1.1h-.4l-.5.1L7.1 6H3.5L7 43.3 26 50.9l19-7.6L48.6 6h-3.6l-.1 1.2h-1L44 6ZM8.1 11.6h-.5l.4 4.5h1l-.4-4.5H8Zm.8 8.9h-.5l.4 4.5h.5l.5-.1-.4-4.4h-.5Zm.8 8.9h-.5l.4 4.5h.5l.5-.1-.4-4.5h-.5Zm.8 8.9H10l.2 2.2 2 .8.1-.4.2-.5-1.4-.6-.1-1.6h-.5Zm5.8 4.2-.2.5 4 1.6.2-.5.1-.4-4-1.7-.1.5Zm8 3.2-.3.5 2 .8 2-.8-.2-.5-.2-.4-1.6.6-1.6-.6-.2.4Zm7.4-1.6.2.5 4-1.6-.2-.5-.2-.5-4 1.7.2.4Zm8-3.2.2.4 2-.8.1-2.2h-1l-.1 1.5-1.4.6.2.5Zm2.2-7h.5l.4-4.5h-1l-.4 4.4h.5Zm.8-9h.5l.4-4.4h-1l-.4 4.4h.5Zm.8-8.8h.5l.4-4.4H44l-.5-.1L43 16h.5Z" fill="#7859CF"></path></svg><svg fill="none" id="feature-ecology" viewBox="0 0 56 56"><path fill-rule="evenodd" clip-rule="evenodd" d="M43.7 22.1C44.5 15.6 45.2 9.3 51 4c-26.5 0-34.2 8.1-38 14-8.5 13-1 25.7.7 28L11 51.7l-2 4 .9.4 2-4 2.6-5.3c2.6.8 14.5 4.2 22-4.7 5.7-6.7 6.5-13.4 7.2-19.9Z" fill="#F0EBFF"></path><path fill-rule="evenodd" clip-rule="evenodd" d="M10.2 41c4-7.7 8.5-16 13-21l.8.7c-4.6 5-9 13.3-13 21a23.7 23.7 0 0 0 7 1.3c4.5.1 9.8-1 13.7-5.6 5.5-6.5 6.3-13 7-19.5.7-5.9 1.4-11.7 6-16.9a59.2 59.2 0 0 0-24.8 4.7c-5.5 2.7-8.2 6-10 8.8-4.6 7-4.4 13.8-3 19a29 29 0 0 0 3.3 7.6Zm-.5 1C8.1 39.8.5 27 9 14 12.8 8.2 20.2.3 45.6 0H47l-1 1c-4.9 5.1-5.6 11-6.3 17.1A33.6 33.6 0 0 1 32.5 38c-7.5 8.9-19.4 5.5-22 4.7L8 48l-2 4-.9-.4A848.3 848.3 0 0 0 9.7 42Z" fill="#7859CF"></path></svg><svg fill="none" id="feature-energy" viewBox="0 0 56 56"><path fill-rule="evenodd" clip-rule="evenodd" d="M27 35.2 45 4 11 30.7l16 4.5Zm6-10.4L15 56 49 29.3l-16-4.5Z" fill="#F0EBFF"></path><path fill-rule="evenodd" clip-rule="evenodd" d="M41.1 0 7 26.7l16 4.5L10.9 52 45 25.3l-16-4.5L41.1 0Zm1.7 25.8-15.3-4.4L37.7 4 9.2 26.3l15.3 4.3L14.3 48l28.5-22.3Z" fill="#7859CF"></path></svg><svg fill="none" id="feature-speed" viewBox="0 0 56 56"><path fill-rule="evenodd" clip-rule="evenodd" d="M26 4h8v3h-3v3c3.8.2 7.4 1.3 10.5 3 1.9-1.9 6.3.2 4.8 3.7h-.1A23 23 0 0 1 30 56a23 23 0 0 1-16.3-39.3c-2-3 2.6-6.1 4.8-3.6 3.1-1.8 6.7-3 10.5-3V7h-3V4Z" fill="#F0EBFF"></path><path fill-rule="evenodd" clip-rule="evenodd" d="M29 1h-6v1h6V1Zm-2 2h3V0h-8v3h3v3c-3.5.2-6.7 1-9.6 2.6l-.1-.2C13.7 6.7 11.4 7 10 8c-.8.6-1.4 1.3-1.6 2.3-.3 1-.2 2 .5 3l.1.2a23 23 0 1 0 34 0l.2-.4c.4-1 .5-2.1.2-3a4 4 0 0 0-1.7-2c-1.4-1-3.6-1.1-5 .3l-.1.2A22.9 22.9 0 0 0 27 6V3Zm-1 4c-3.9 0-7.5 1-10.6 2.7l-.4.2a22 22 0 1 0 22 0l-.4-.2A21.9 21.9 0 0 0 26 7ZM14.5 9a23 23 0 0 0-4.8 3.7 3 3 0 0 1-.4-1c-.5-2.3 2.3-4.3 4.3-3.3l.9.7Zm23 0a23 23 0 0 1 4.8 3.7l.3-1c.2-2.4-2.4-3.8-4.1-3.2-.4.1-.7.3-1 .6ZM26 31a2 2 0 0 0 .9-3.8l-1-.2a2 2 0 0 0 .1 4Zm-.6-5L24 21.2V20.8l1.5-4.5.5-1.4.5 1.4 1.5 4.5V21.1l-1.4 5h.4l7.6-13.3.8.4L28 26.7a3 3 0 1 1-2.5-.6Zm-.4-5 1 3.6 1-3.6-1-3-1 3Z" fill="#7859CF"></path></svg><svg fill="none" id="footer-logo-mobile" viewBox="0 0 82 36"><path d="M74 26.3c-1.2 0-2.5-.2-3.6-.6-1.2-.4-2.1-1-3-1.8a8.6 8.6 0 0 1-2.6-6.3 8.6 8.6 0 0 1 2.7-6.3c.8-.8 1.8-1.4 3-1.8 1-.4 2.3-.6 3.7-.6 1.6 0 3 .2 4.2.8a8 8 0 0 1 3.1 2.2l-3 2.8c-.6-.7-1.2-1.1-1.9-1.4a5.5 5.5 0 0 0-4.2-.1 4 4 0 0 0-1.5 1c-.4.3-.7.8-1 1.4-.2.6-.3 1.3-.3 2s.1 1.4.4 2a4.6 4.6 0 0 0 4.4 2.9l2-.4a7 7 0 0 0 2-1.2l2.7 3.3c-1 .7-2 1.2-3.3 1.6-1.3.4-2.5.5-3.7.5Zm3-2.7v-6.4H81v7l-4.2-.6Z" fill="#333"></path><path fill-rule="evenodd" clip-rule="evenodd" d="M58 18c0 2.9-.6 5.6-1.7 8H43c2.5-3.8 5-8.3 5-13C48 7 44 2 38.4.5 39.6.2 40.8 0 42 0c8.8 0 16 8 16 18Zm-14-5c0-5-4-9-9-9-6.7 0-9 8.5-9 14 0 10 7.2 18 16 18 4.7 0 9-2.3 12-6H35l1.1-1.4C39.6 24.2 44 18.7 44 13Z" fill="#7859CF"></path><path d="M1.9 26V9.2h7.9c1.9 0 3.5.3 4.9 1a7.9 7.9 0 0 1 4.5 7.4 7.9 7.9 0 0 1-4.5 7.4c-1.4.7-3 1-4.9 1h-8Zm4.7-3.8h3c1 0 1.8-.2 2.5-.5a4 4 0 0 0 1.7-1.6 5 5 0 0 0 .6-2.5c0-1-.2-1.8-.6-2.5-.4-.7-1-1.2-1.7-1.6-.7-.3-1.5-.5-2.5-.5h-3v9.2Z" fill="#333"></path></svg><svg fill="none" id="footer-logo-tablet" viewBox="0 0 170 36"><path d="M140 26.3c-1.2 0-2.5-.2-3.6-.6-1.2-.4-2.1-1-3-1.8a8.6 8.6 0 0 1-2.6-6.3 8.6 8.6 0 0 1 2.7-6.3c.8-.8 1.8-1.4 3-1.8 1-.4 2.3-.6 3.7-.6 1.6 0 3 .2 4.2.8a8 8 0 0 1 3.1 2.2l-3 2.8c-.6-.7-1.2-1.1-1.9-1.4a5.5 5.5 0 0 0-4.2-.1 4 4 0 0 0-1.5 1c-.4.3-.7.8-1 1.4-.2.6-.3 1.3-.3 2s.1 1.4.4 2a4.6 4.6 0 0 0 4.4 2.9l2-.4a7 7 0 0 0 2-1.2l2.7 3.3c-1 .7-2 1.2-3.3 1.6-1.3.4-2.5.5-3.7.5Zm3-2.7v-6.4h4.1v7l-4.2-.6Zm16.1 2.7a9.1 9.1 0 0 1-6.7-2.5 8.7 8.7 0 0 1 3-14.3c1.1-.4 2.4-.6 3.7-.6 1.4 0 2.6.2 3.7.6a8.6 8.6 0 0 1 0 16.2c-1.1.4-2.3.6-3.7.6Zm0-3.9 1.8-.3a4 4 0 0 0 1.4-1c.4-.4.8-1 1-1.5.2-.6.3-1.3.3-2a5 5 0 0 0-1.3-3.5 4 4 0 0 0-1.4-1l-1.8-.3-1.8.3-1.4 1a4.7 4.7 0 0 0-1.3 3.5c0 .7 0 1.4.3 2a5 5 0 0 0 1 1.5 4.4 4.4 0 0 0 3.2 1.3Z" fill="#333"></path><path fill-rule="evenodd" clip-rule="evenodd" d="M124 18c0 2.9-.6 5.6-1.7 8H109c2.5-3.8 5-8.3 5-13 0-6-4-11-9.6-12.5 1.2-.3 2.4-.5 3.6-.5 8.8 0 16 8 16 18Zm-14-5c0-5-4-9-9-9-6.7 0-9 8.5-9 14 0 10 7.2 18 16 18 4.7 0 9-2.3 12-6h-19l1.1-1.4c3.5-4.4 7.9-9.9 7.9-15.6Z" fill="#7859CF"></path><path d="M2.7 26V9.2h7.9c1.9 0 3.5.3 4.9 1a7.9 7.9 0 0 1 4.5 7.4 7.9 7.9 0 0 1-4.5 7.4c-1.4.7-3 1-5 1H2.8Zm4.7-3.8h3c1 0 1.8-.2 2.5-.5a4 4 0 0 0 1.7-1.6 5 5 0 0 0 .6-2.5c0-1-.2-1.8-.6-2.5-.4-.7-1-1.2-1.7-1.6-.7-.3-1.5-.5-2.5-.5h-3v9.2ZM23 26V9.2h7.6c1.6 0 2.9.2 4 .7 1.1.5 2 1.3 2.6 2.2.6 1 .9 2 .9 3.3 0 1.3-.3 2.4-1 3.3-.5 1-1.4 1.6-2.5 2.1s-2.4.7-4 .7h-5l2.1-2V26H23Zm10.4 0-4.2-6.1h5l4.2 6.1h-5Zm-5.7-6L25.6 18h4.8c1 0 1.7-.3 2.2-.7.5-.4.7-1 .7-1.8s-.2-1.4-.7-1.8c-.5-.4-1.3-.7-2.2-.7h-4.8l2.1-2.1V20Zm13.5 6V9.2H46V26h-4.8Zm8.6 0V9.2h4L63 20.4H61V9.2h4.7V26h-4l-9.2-11.2h1.9V26h-4.7Zm24-3.7-.2-5.3 7.2-7.8h5.3L78.9 17l-2.7 2.8-2.3 2.5ZM69.7 26V9.2h4.7V26h-4.7ZM81 26l-5.5-7 3.1-3.2 8 10.2h-5.6Z" fill="#333"></path></svg><svg fill="none" id="logo-academy" viewBox="0 0 12 16"><path d="M11.2 5.8 6 2.5.8 5.8V1.4L6 .8l5.2.6v4.4Zm0 .5-2 1.3-3.2-2v.6L8.7 8l-.5.3L6 6.8v.6l1.7 1-.4.4L6 8v.5l.8.6-.8.5L.8 6.4 6 3l5.2 3.2Zm0 5.5L6 15 .8 11.8V7L6 10.3v.6L2.4 8.6v.6L6 11.5v.6L2.4 9.8v.6L6 12.7l3.6-2.3V8l1.6-1v4.8ZM6 0 0 .7v11.5L6 16l6-3.8V.7L6 0Z" fill="#BDBDBD"></path></svg><svg viewBox="0 0 170 36" fill="none" id="logo-desktop"><path d="M143 17.2h4.1v7a11.3 11.3 0 0 1-7 2.1c-1.8 0-3.4-.3-4.8-1a8.4 8.4 0 0 1-4.5-7.7 8.2 8.2 0 0 1 4.5-7.6c1.5-.8 3-1.1 4.9-1.1a9.6 9.6 0 0 1 7.3 3l-3 2.8a5.3 5.3 0 0 0-4-1.9c-1.5 0-2.7.4-3.6 1.3a5 5 0 0 0-1.3 3.5c0 1 .2 1.8.6 2.5.4.7 1 1.3 1.7 1.7a5 5 0 0 0 2.5.6 6 6 0 0 0 2.5-.6v-4.6Zm16.1 9.1c-1.8 0-3.4-.3-4.8-1A8.6 8.6 0 0 1 151 22a8.5 8.5 0 0 1-1.2-4.5 8.4 8.4 0 0 1 4.5-7.6c1.4-.8 3-1.1 4.8-1.1 1.8 0 3.4.3 4.8 1a8.4 8.4 0 0 1 4.5 7.7 8.4 8.4 0 0 1-4.5 7.6 10 10 0 0 1-4.8 1.1Zm0-3.9a4.3 4.3 0 0 0 4-2.3c.3-.7.5-1.6.5-2.5a5 5 0 0 0-.6-2.5 4.3 4.3 0 0 0-3.9-2.3 4.3 4.3 0 0 0-4 2.3 5 5 0 0 0-.5 2.5c0 1 .2 1.8.6 2.5a4.3 4.3 0 0 0 3.9 2.3Z" fill="#333"></path><path fill-rule="evenodd" clip-rule="evenodd" d="M124 18c0 2.9-.6 5.6-1.7 8H109c2.5-3.8 5-8.3 5-13 0-6-4-11-9.6-12.5 1.2-.3 2.4-.5 3.6-.5 8.8 0 16 8 16 18Zm-14-5c0-5-4-9-9-9-6.7 0-9 8.5-9 14 0 10 7.2 18 16 18 4.7 0 9-2.3 12-6h-19l1.1-1.4c3.5-4.4 7.9-9.9 7.9-15.6Z" fill="#7859CF"></path><path d="M2.7 9.2h7.9c1.8 0 3.5.3 4.9 1a7.8 7.8 0 0 1 4.5 7.4 7.8 7.8 0 0 1-4.5 7.4c-1.4.7-3 1-5 1H2.8V9.2Zm7.7 13c1.4 0 2.6-.4 3.5-1.2.8-.8 1.3-2 1.3-3.4s-.5-2.6-1.3-3.4c-1-.8-2-1.2-3.5-1.2h-3v9.2h3Zm19.9-.7h-2.6V26H23V9.2h7.6c1.6 0 2.9.3 4 .8s2 1.2 2.6 2.1c.6 1 .9 2 .9 3.3a5.7 5.7 0 0 1-3.3 5.3l3.6 5.3h-5l-3.1-4.5Zm3-6c0-.9-.2-1.5-.7-2-.5-.3-1.3-.6-2.2-.6h-2.7v5h2.7c1 0 1.7-.2 2.2-.7.5-.4.7-1 .7-1.8Zm7.9-6.3H46V26h-4.8V9.2Zm24.6 0V26h-4l-7.3-9v9h-4.7V9.2h4l7.3 9v-9h4.7Zm10.3 10.7-1.8 1.9V26h-4.7V9.2h4.7v7l6.5-7h5.3l-6.9 7.4 7.2 9.4H81l-4.8-6.1Z" fill="#333"></path></svg><svg viewBox="0 0 82 36" fill="none" id="logo-tablet"><path d="M77 17.2h4v7a11.3 11.3 0 0 1-7 2.1c-1.8 0-3.4-.3-4.8-1a8.4 8.4 0 0 1-4.5-7.7 8.2 8.2 0 0 1 4.5-7.6c1.5-.8 3-1.1 4.9-1.1a9.6 9.6 0 0 1 7.3 3l-3 2.8a5.3 5.3 0 0 0-4-1.9c-1.5 0-2.7.4-3.6 1.3a5 5 0 0 0-1.3 3.5c0 1 .2 1.8.6 2.5.4.7 1 1.3 1.7 1.7a5 5 0 0 0 2.5.6 6 6 0 0 0 2.5-.6v-4.6Z" fill="#333"></path><path fill-rule="evenodd" clip-rule="evenodd" d="M58 18c0 2.9-.6 5.6-1.7 8H43c2.5-3.8 5-8.3 5-13C48 7 44 2 38.4.5 39.6.2 40.8 0 42 0c8.8 0 16 8 16 18Zm-14-5c0-5-4-9-9-9-6.7 0-9 8.5-9 14 0 10 7.2 18 16 18 4.7 0 9-2.3 12-6H35l1.1-1.4C39.6 24.2 44 18.7 44 13Z" fill="#7859CF"></path><path d="M1.9 9.2h7.9c1.8 0 3.5.3 4.9 1a7.8 7.8 0 0 1 4.5 7.4 7.8 7.8 0 0 1-4.5 7.4c-1.4.7-3 1-4.9 1h-8V9.2Zm7.7 13c1.4 0 2.6-.4 3.5-1.2.8-.8 1.3-2 1.3-3.4s-.5-2.6-1.3-3.4A5 5 0 0 0 9.6 13h-3v9.2h3Z" fill="#333"></path></svg><svg viewBox="0 0 36 36" fill="none" id="logo"><path fill-rule="evenodd" clip-rule="evenodd" d="M34 18c0 2.9-.6 5.6-1.7 8H19c2.5-3.8 5-8.3 5-13C24 7 20 2 14.4.5 15.6.2 16.8 0 18 0c8.8 0 16 8 16 18Zm-14-5c0-5-4-9-9-9-6.7 0-9 8.5-9 14 0 10 7.2 18 16 18 4.7 0 9-2.3 12-6H11l1.1-1.4C15.6 24.2 20 18.7 20 13Z" fill="#7859CF"></path></svg><svg viewBox="0 0 38 50" fill="none" id="map-marker">
<ellipse cx="19" cy="48.5" rx="8" ry="1.5" fill="#7859CF" fill-opacity="0.25"></ellipse>
<path d="M38 20C38 35.0457 19 44 19 44C19 44 0 35.0457 0 20C0 8.9543 8.50659 0 19 0C29.4934 0 38 8.9543 38 20Z" fill="#7859CF"></path>
<path fill-rule="evenodd" clip-rule="evenodd" d="M19 36C27.2843 36 34 28.8365 34 20C34 11.1635 27.2843 4 19 4C10.7157 4 4 11.1635 4 20C4 28.8365 10.7157 36 19 36ZM28.8566 25.3333C29.5886 23.7267 30.0001 21.9158 30.0001 20C30.0001 13.3726 25.0752 8 19.0001 8C18.1529 8 17.3281 8.10448 16.5359 8.30226C20.3328 9.30223 23.1251 12.6682 23.1251 16.6667C23.1251 19.7738 21.3806 22.8188 19.6876 25.3333H28.8566ZM14.1875 10.6665C17.6047 10.6665 20.375 13.3528 20.375 16.6665C20.375 20.4663 17.3608 24.134 14.9429 27.076C14.6827 27.3926 14.4294 27.7008 14.1875 27.9998H27.199C25.1849 30.4548 22.2578 31.9998 19 31.9998C12.9249 31.9998 8 26.6273 8 19.9998C8 16.3379 9.61517 10.6665 14.1875 10.6665Z" fill="white"></path>
</svg><svg fill="none" id="open-menu" viewBox="0 0 60 60"><path fill="#fff" d="M0 0h60v60H0z"></path><path fill-rule="evenodd" clip-rule="evenodd" d="M22 24h16v1.5H22V24Zm0 5.3h16v1.4H22v-1.4Zm16 5.2H22V36h16v-1.5Z" fill="#333"></path></svg><svg fill="none" id="phone" viewBox="0 0 13 16"><path fill-rule="evenodd" clip-rule="evenodd" d="M1.5 1.5C.5 2-.2 3.2 0 4.3l.4 1.8c1 3.1 2.5 5.8 4.8 8.1l1.4 1.2c.9.7 2.2.8 3.3.2l2.2-1.2c.9-.5 1.2-1.6.6-2.3l-1.9-2.6c-.5-.7-1.6-.8-2.4-.3l-1.3 1C5.8 9.3 5 8 4.9 6.6l1.5-.7c1-.4 1.4-1.3 1-2.1L6 .8C5.7 0 4.6-.2 3.7.2L1.5 1.5ZM1.3 4c-.1-.6.2-1.2.8-1.5l2.2-1.3c.2-.1.5 0 .6.2l1.3 3c.1.1 0 .3-.2.4l-2.4 1v.5c0 2.1 1.2 4 3 5.1l.4.3L9.1 10h.6l2 2.7c.1.2 0 .4-.2.6l-2.2 1.2c-.6.3-1.3.3-1.8-.1l-1.4-1.2a21 21 0 0 1-4.5-7.5L1.3 4Z" fill="#7859CF"></path></svg><svg fill="none" id="radio-checked" viewBox="0 0 24 24"><circle cx="12" cy="12" r="11" fill="#fff" stroke="#BDBDBD" stroke-width="2"></circle></svg><svg fill="none" id="radio" viewBox="0 0 24 24"><circle cx="12" cy="12" r="11" fill="#fff" stroke="#7859CF" stroke-width="2"></circle><circle cx="12" cy="12" r="8" fill="#7859CF"></circle></svg><svg fill="none" id="social-class" viewBox="0 0 20 20"><path fill-rule="evenodd" clip-rule="evenodd" d="M1.4 1.4C0 2.8 0 5.1 0 9.6v.9c0 4.5 0 6.7 1.4 8.1C2.8 20 5.1 20 9.6 20h.9c4.5 0 6.7 0 8.1-1.4 1.4-1.4 1.4-3.7 1.4-8.2v-.9c0-4.5 0-6.7-1.4-8.1C17.2 0 14.9 0 10.4 0h-.9C5 0 2.8 0 1.4 1.4Zm8.6 8.8a3 3 0 1 0 0-6 3 3 0 0 0 0 6Zm0-4.3a1.3 1.3 0 0 1 0 2.5c-.7 0-1.2-.5-1.2-1.2s.5-1.3 1.2-1.3Zm1.2 6.8L13 12c.4-.3.5-.9.3-1.3a.9.9 0 0 0-1.3-.2c-1.2.7-2.8.7-4 0a.9.9 0 0 0-1.3.2c-.2.4 0 1 .3 1.2.6.4 1.2.6 1.8.8L7 14.3c-.3.4-.3 1 0 1.3l.6.3c.3 0 .5-.1.7-.3l1.6-1.7 1.7 1.7a.9.9 0 0 0 1.3-1.3l-1.8-1.6Z" fill="#BDBDBD"></path></svg><svg fill="none" id="social-pinterest" viewBox="0 0 22 22"><path d="M11 0a11 11 0 0 0-4 21.2c-.1-.8-.2-2.2 0-3.1l1.3-5.5S8 12 8 11c0-1.5.9-2.7 2-2.7 1 0 1.4.7 1.4 1.6 0 1-.6 2.3-1 3.6-.2 1.1.6 2 1.7 2 2 0 3.4-2 3.4-5C15.5 7.8 13.7 6 11 6c-3.2 0-5 2.4-5 4.8 0 1 .4 2 .8 2.5v.3l-.2 1.2c0 .3-.2.3-.4.2-1.4-.6-2.2-2.7-2.2-4.3 0-3.4 2.5-6.6 7.2-6.6 3.9 0 6.8 2.7 6.8 6.3 0 3.8-2.4 6.9-5.7 6.9-1.1 0-2.1-.6-2.5-1.3l-.7 2.6c-.2 1-1 2.2-1.4 3A11 11 0 1 0 11 0Z" fill="#BDBDBD"></path></svg><svg fill="none" id="social-vkontakte" viewBox="0 0 20 20"><path fill-rule="evenodd" clip-rule="evenodd" d="M1.4 1.4C0 2.8 0 5.1 0 9.6v.8c0 4.5 0 6.8 1.4 8.2C2.8 20 5.1 20 9.6 20h.8c4.5 0 6.8 0 8.2-1.4 1.4-1.4 1.4-3.7 1.4-8.2v-.8c0-4.5 0-6.8-1.4-8.2C17.2 0 14.9 0 10.4 0h-.8C5.1 0 2.8 0 1.4 1.4Zm2 4.7c0 5.2 2.7 8.3 7.2 8.3h.3v-3c1.7.2 3 1.4 3.4 3h2.4a6.6 6.6 0 0 0-3.4-4.2c1-.6 2.6-2 3-4.1H14c-.5 1.6-1.9 3.1-3.2 3.3V6H8.7v5.8c-1.3-.4-3-2-3-5.8H3.4Z" fill="#BDBDBD"></path></svg><svg fill="none" id="toggle-checked" viewBox="0 0 42 25"><rect y=".5" width="42" height="24" rx="12" fill="#7859CF"></rect><circle cx="30" cy="12.5" r="10" fill="#fff"></circle></svg><svg fill="none" id="toggle-hover" viewBox="0 0 42 24"><rect x="1" y="1" width="40" height="22" rx="11" fill="#7859CF" fill-opacity=".3" stroke="#9070EC" stroke-width="2"></rect><circle cx="12" cy="12" r="10" fill="#fff"></circle></svg><svg fill="none" id="toggle" viewBox="0 0 42 25"><rect y=".9" width="42" height="24" rx="12" fill="#BDBDBD"></rect><circle cx="12" cy="12.9" r="10" fill="#fff"></circle></svg><svg fill="none" id="user" viewBox="0 0 16 16"><path fill-rule="evenodd" clip-rule="evenodd" d="M10.7 4a2.7 2.7 0 1 1-5.4 0 2.7 2.7 0 0 1 5.4 0ZM12 4a4 4 0 1 1-8 0 4 4 0 0 1 8 0Zm-8.8 8.3c1.2-1 3-1.6 4.8-1.6 1.8 0 3.6.6 4.8 1.6 1.2 1 1.9 2.4 1.9 3.7H16c0-1.8-.8-3.5-2.3-4.7a8.9 8.9 0 0 0-5.7-2c-2.1 0-4.2.7-5.7 2A6.2 6.2 0 0 0 0 16h1.3c0-1.3.7-2.7 1.9-3.7Z" fill="#333"></path></svg></svg>