<svg width="56" height="56" fill="none" xmlns="http://www.w3.org/2000/svg"><path d="M6 4h48l-4 44-20 8-20-8L6 4Z" fill="#F0EBFF"/><path fill-rule="evenodd" clip-rule="evenodd" d="M3 0H2v1l4 43 20 8 20-8 4-43V0H3Zm.1 1 .4 4H48.5l.4-4H3.1Zm40.8 5H8.1v1.1h-.4l-.5.1L7.1 6H3.5L7 43.3 26 50.9l19-7.6L48.6 6h-3.6l-.1 1.2h-1L44 6ZM8.1 11.6h-.5l.4 4.5h1l-.4-4.5H8Zm.8 8.9h-.5l.4 4.5h.5l.5-.1-.4-4.4h-.5Zm.8 8.9h-.5l.4 4.5h.5l.5-.1-.4-4.5h-.5Zm.8 8.9H10l.2 2.2 2 .8.1-.4.2-.5-1.4-.6-.1-1.6h-.5Zm5.8 4.2-.2.5 4 1.6.2-.5.1-.4-4-1.7-.1.5Zm8 3.2-.3.5 2 .8 2-.8-.2-.5-.2-.4-1.6.6-1.6-.6-.2.4Zm7.4-1.6.2.5 4-1.6-.2-.5-.2-.5-4 1.7.2.4Zm8-3.2.2.4 2-.8.1-2.2h-1l-.1 1.5-1.4.6.2.5Zm2.2-7h.5l.4-4.5h-1l-.4 4.4h.5Zm.8-9h.5l.4-4.4h-1l-.4 4.4h.5Zm.8-8.8h.5l.4-4.4H44l-.5-.1L43 16h.5Z" fill="#7859CF"/></svg>