<svg width="56" height="56" fill="none" xmlns="http://www.w3.org/2000/svg"><path fill-rule="evenodd" clip-rule="evenodd" d="M26 4h8v3h-3v3c3.8.2 7.4 1.3 10.5 3 1.9-1.9 6.3.2 4.8 3.7h-.1A23 23 0 0 1 30 56a23 23 0 0 1-16.3-39.3c-2-3 2.6-6.1 4.8-3.6 3.1-1.8 6.7-3 10.5-3V7h-3V4Z" fill="#F0EBFF"/><path fill-rule="evenodd" clip-rule="evenodd" d="M29 1h-6v1h6V1Zm-2 2h3V0h-8v3h3v3c-3.5.2-6.7 1-9.6 2.6l-.1-.2C13.7 6.7 11.4 7 10 8c-.8.6-1.4 1.3-1.6 2.3-.3 1-.2 2 .5 3l.1.2a23 23 0 1 0 34 0l.2-.4c.4-1 .5-2.1.2-3a4 4 0 0 0-1.7-2c-1.4-1-3.6-1.1-5 .3l-.1.2A22.9 22.9 0 0 0 27 6V3Zm-1 4c-3.9 0-7.5 1-10.6 2.7l-.4.2a22 22 0 1 0 22 0l-.4-.2A21.9 21.9 0 0 0 26 7ZM14.5 9a23 23 0 0 0-4.8 3.7 3 3 0 0 1-.4-1c-.5-2.3 2.3-4.3 4.3-3.3l.9.7Zm23 0a23 23 0 0 1 4.8 3.7l.3-1c.2-2.4-2.4-3.8-4.1-3.2-.4.1-.7.3-1 .6ZM26 31a2 2 0 0 0 .9-3.8l-1-.2a2 2 0 0 0 .1 4Zm-.6-5L24 21.2V20.8l1.5-4.5.5-1.4.5 1.4 1.5 4.5V21.1l-1.4 5h.4l7.6-13.3.8.4L28 26.7a3 3 0 1 1-2.5-.6Zm-.4-5 1 3.6 1-3.6-1-3-1 3Z" fill="#7859CF"/></svg>