<svg viewBox="0 0 170 36" fill="none" xmlns="http://www.w3.org/2000/svg"><path d="M143 17.2h4.1v7a11.3 11.3 0 0 1-7 2.1c-1.8 0-3.4-.3-4.8-1a8.4 8.4 0 0 1-4.5-7.7 8.2 8.2 0 0 1 4.5-7.6c1.5-.8 3-1.1 4.9-1.1a9.6 9.6 0 0 1 7.3 3l-3 2.8a5.3 5.3 0 0 0-4-1.9c-1.5 0-2.7.4-3.6 1.3a5 5 0 0 0-1.3 3.5c0 1 .2 1.8.6 2.5.4.7 1 1.3 1.7 1.7a5 5 0 0 0 2.5.6 6 6 0 0 0 2.5-.6v-4.6Zm16.1 9.1c-1.8 0-3.4-.3-4.8-1A8.6 8.6 0 0 1 151 22a8.5 8.5 0 0 1-1.2-4.5 8.4 8.4 0 0 1 4.5-7.6c1.4-.8 3-1.1 4.8-1.1 1.8 0 3.4.3 4.8 1a8.4 8.4 0 0 1 4.5 7.7 8.4 8.4 0 0 1-4.5 7.6 10 10 0 0 1-4.8 1.1Zm0-3.9a4.3 4.3 0 0 0 4-2.3c.3-.7.5-1.6.5-2.5a5 5 0 0 0-.6-2.5 4.3 4.3 0 0 0-3.9-2.3 4.3 4.3 0 0 0-4 2.3 5 5 0 0 0-.5 2.5c0 1 .2 1.8.6 2.5a4.3 4.3 0 0 0 3.9 2.3Z" fill="#333"/><path fill-rule="evenodd" clip-rule="evenodd" d="M124 18c0 2.9-.6 5.6-1.7 8H109c2.5-3.8 5-8.3 5-13 0-6-4-11-9.6-12.5 1.2-.3 2.4-.5 3.6-.5 8.8 0 16 8 16 18Zm-14-5c0-5-4-9-9-9-6.7 0-9 8.5-9 14 0 10 7.2 18 16 18 4.7 0 9-2.3 12-6h-19l1.1-1.4c3.5-4.4 7.9-9.9 7.9-15.6Z" fill="#7859CF"/><path d="M2.7 9.2h7.9c1.8 0 3.5.3 4.9 1a7.8 7.8 0 0 1 4.5 7.4 7.8 7.8 0 0 1-4.5 7.4c-1.4.7-3 1-5 1H2.8V9.2Zm7.7 13c1.4 0 2.6-.4 3.5-1.2.8-.8 1.3-2 1.3-3.4s-.5-2.6-1.3-3.4c-1-.8-2-1.2-3.5-1.2h-3v9.2h3Zm19.9-.7h-2.6V26H23V9.2h7.6c1.6 0 2.9.3 4 .8s2 1.2 2.6 2.1c.6 1 .9 2 .9 3.3a5.7 5.7 0 0 1-3.3 5.3l3.6 5.3h-5l-3.1-4.5Zm3-6c0-.9-.2-1.5-.7-2-.5-.3-1.3-.6-2.2-.6h-2.7v5h2.7c1 0 1.7-.2 2.2-.7.5-.4.7-1 .7-1.8Zm7.9-6.3H46V26h-4.8V9.2Zm24.6 0V26h-4l-7.3-9v9h-4.7V9.2h4l7.3 9v-9h4.7Zm10.3 10.7-1.8 1.9V26h-4.7V9.2h4.7v7l6.5-7h5.3l-6.9 7.4 7.2 9.4H81l-4.8-6.1Z" fill="#333"/></svg>
