<svg viewBox="0 0 82 36" fill="none" xmlns="http://www.w3.org/2000/svg"><path d="M77 17.2h4v7a11.3 11.3 0 0 1-7 2.1c-1.8 0-3.4-.3-4.8-1a8.4 8.4 0 0 1-4.5-7.7 8.2 8.2 0 0 1 4.5-7.6c1.5-.8 3-1.1 4.9-1.1a9.6 9.6 0 0 1 7.3 3l-3 2.8a5.3 5.3 0 0 0-4-1.9c-1.5 0-2.7.4-3.6 1.3a5 5 0 0 0-1.3 3.5c0 1 .2 1.8.6 2.5.4.7 1 1.3 1.7 1.7a5 5 0 0 0 2.5.6 6 6 0 0 0 2.5-.6v-4.6Z" fill="#333"/><path fill-rule="evenodd" clip-rule="evenodd" d="M58 18c0 2.9-.6 5.6-1.7 8H43c2.5-3.8 5-8.3 5-13C48 7 44 2 38.4.5 39.6.2 40.8 0 42 0c8.8 0 16 8 16 18Zm-14-5c0-5-4-9-9-9-6.7 0-9 8.5-9 14 0 10 7.2 18 16 18 4.7 0 9-2.3 12-6H35l1.1-1.4C39.6 24.2 44 18.7 44 13Z" fill="#7859CF"/><path d="M1.9 9.2h7.9c1.8 0 3.5.3 4.9 1a7.8 7.8 0 0 1 4.5 7.4 7.8 7.8 0 0 1-4.5 7.4c-1.4.7-3 1-4.9 1h-8V9.2Zm7.7 13c1.4 0 2.6-.4 3.5-1.2.8-.8 1.3-2 1.3-3.4s-.5-2.6-1.3-3.4A5 5 0 0 0 9.6 13h-3v9.2h3Z" fill="#333"/></svg>
